<svg width="192" height="36" viewBox="0 0 192 36" fill="none" xmlns="http://www.w3.org/2000/svg">
<path fill-rule="evenodd" clip-rule="evenodd" d="M18 36C27.9411 36 36 27.9411 36 18C36 8.05888 27.9411 0 18 0C8.05888 0 0 8.05888 0 18C0 27.9411 8.05888 36 18 36ZM9.67164 9.13433L18 17.194L26.3284 9.13433H9.67164ZM18 26.0597C13.5488 26.0597 9.9403 22.4513 9.9403 18H4.56716C4.56716 25.4188 10.5813 31.4328 18 31.4328C25.4188 31.4328 31.4328 25.4188 31.4328 18H26.0597C26.0597 22.4513 22.4513 26.0597 18 26.0597Z" fill="#0052FE"/>
<path d="M54.36 24.24C53.28 24.24 52.2733 24.0667 51.34 23.72C50.42 23.36 49.62 22.8533 48.94 22.2C48.26 21.5467 47.7267 20.78 47.34 19.9C46.9667 19.02 46.78 18.0533 46.78 17C46.78 15.9467 46.9667 14.98 47.34 14.1C47.7267 13.22 48.26 12.4533 48.94 11.8C49.6333 11.1467 50.44 10.6467 51.36 10.3C52.28 9.94 53.2867 9.76 54.38 9.76C55.5933 9.76 56.6867 9.97333 57.66 10.4C58.6467 10.8133 59.4733 11.4267 60.14 12.24L58.06 14.16C57.58 13.6133 57.0467 13.2067 56.46 12.94C55.8733 12.66 55.2333 12.52 54.54 12.52C53.8867 12.52 53.2867 12.6267 52.74 12.84C52.1933 13.0533 51.72 13.36 51.32 13.76C50.92 14.16 50.6067 14.6333 50.38 15.18C50.1667 15.7267 50.06 16.3333 50.06 17C50.06 17.6667 50.1667 18.2733 50.38 18.82C50.6067 19.3667 50.92 19.84 51.32 20.24C51.72 20.64 52.1933 20.9467 52.74 21.16C53.2867 21.3733 53.8867 21.48 54.54 21.48C55.2333 21.48 55.8733 21.3467 56.46 21.08C57.0467 20.8 57.58 20.38 58.06 19.82L60.14 21.74C59.4733 22.5533 58.6467 23.1733 57.66 23.6C56.6867 24.0267 55.5867 24.24 54.36 24.24ZM61.308 24V13.24H64.288V16.28L63.868 15.4C64.188 14.64 64.7013 14.0667 65.408 13.68C66.1146 13.28 66.9746 13.08 67.988 13.08V15.96C67.8546 15.9467 67.7346 15.94 67.628 15.94C67.5213 15.9267 67.408 15.92 67.288 15.92C66.4346 15.92 65.7413 16.1667 65.208 16.66C64.688 17.14 64.428 17.8933 64.428 18.92V24H61.308ZM70.7742 28.04C70.2142 28.04 69.6609 27.9533 69.1142 27.78C68.5676 27.6067 68.1209 27.3667 67.7742 27.06L68.9142 24.84C69.1542 25.0533 69.4276 25.22 69.7342 25.34C70.0542 25.46 70.3676 25.52 70.6742 25.52C71.1142 25.52 71.4609 25.4133 71.7142 25.2C71.9809 25 72.2209 24.66 72.4342 24.18L72.9942 22.86L73.2342 22.52L77.0942 13.24H80.0942L75.2342 24.66C74.8876 25.5267 74.4876 26.2067 74.0342 26.7C73.5942 27.1933 73.1009 27.54 72.5542 27.74C72.0209 27.94 71.4276 28.04 70.7742 28.04ZM72.6142 24.42L67.8142 13.24H71.0342L74.7542 22.24L72.6142 24.42ZM86.9273 24.16C86.0207 24.16 85.2273 23.96 84.5473 23.56C83.8673 23.16 83.334 22.5533 82.9473 21.74C82.574 20.9133 82.3873 19.8733 82.3873 18.62C82.3873 17.3533 82.5673 16.3133 82.9273 15.5C83.2873 14.6867 83.8073 14.08 84.4873 13.68C85.1673 13.28 85.9807 13.08 86.9273 13.08C87.9407 13.08 88.8473 13.3133 89.6473 13.78C90.4607 14.2333 91.1007 14.8733 91.5673 15.7C92.0473 16.5267 92.2873 17.5 92.2873 18.62C92.2873 19.7533 92.0473 20.7333 91.5673 21.56C91.1007 22.3867 90.4607 23.0267 89.6473 23.48C88.8473 23.9333 87.9407 24.16 86.9273 24.16ZM80.5673 27.88V13.24H83.5473V15.44L83.4873 18.64L83.6873 21.82V27.88H80.5673ZM86.3873 21.6C86.9073 21.6 87.3673 21.48 87.7673 21.24C88.1807 21 88.5073 20.66 88.7473 20.22C89.0007 19.7667 89.1273 19.2333 89.1273 18.62C89.1273 17.9933 89.0007 17.46 88.7473 17.02C88.5073 16.58 88.1807 16.24 87.7673 16C87.3673 15.76 86.9073 15.64 86.3873 15.64C85.8673 15.64 85.4007 15.76 84.9873 16C84.574 16.24 84.2473 16.58 84.0073 17.02C83.7673 17.46 83.6473 17.9933 83.6473 18.62C83.6473 19.2333 83.7673 19.7667 84.0073 20.22C84.2473 20.66 84.574 21 84.9873 21.24C85.4007 21.48 85.8673 21.6 86.3873 21.6ZM97.9759 24.16C96.7093 24.16 95.7226 23.84 95.0159 23.2C94.3093 22.5467 93.9559 21.58 93.9559 20.3V10.86H97.0759V20.26C97.0759 20.7133 97.1959 21.0667 97.4359 21.32C97.6759 21.56 98.0026 21.68 98.4159 21.68C98.9093 21.68 99.3293 21.5467 99.6759 21.28L100.516 23.48C100.196 23.7067 99.8093 23.88 99.3559 24C98.9159 24.1067 98.4559 24.16 97.9759 24.16ZM92.2959 15.88V13.48H99.7559V15.88H92.2959ZM106.255 24.16C105.109 24.16 104.089 23.92 103.195 23.44C102.315 22.96 101.615 22.3067 101.095 21.48C100.589 20.64 100.335 19.6867 100.335 18.62C100.335 17.54 100.589 16.5867 101.095 15.76C101.615 14.92 102.315 14.2667 103.195 13.8C104.089 13.32 105.109 13.08 106.255 13.08C107.389 13.08 108.402 13.32 109.295 13.8C110.189 14.2667 110.889 14.9133 111.395 15.74C111.902 16.5667 112.155 17.5267 112.155 18.62C112.155 19.6867 111.902 20.64 111.395 21.48C110.889 22.3067 110.189 22.96 109.295 23.44C108.402 23.92 107.389 24.16 106.255 24.16ZM106.255 21.6C106.775 21.6 107.242 21.48 107.655 21.24C108.069 21 108.395 20.66 108.635 20.22C108.875 19.7667 108.995 19.2333 108.995 18.62C108.995 17.9933 108.875 17.46 108.635 17.02C108.395 16.58 108.069 16.24 107.655 16C107.242 15.76 106.775 15.64 106.255 15.64C105.735 15.64 105.269 15.76 104.855 16C104.442 16.24 104.109 16.58 103.855 17.02C103.615 17.46 103.495 17.9933 103.495 18.62C103.495 19.2333 103.615 19.7667 103.855 20.22C104.109 20.66 104.442 21 104.855 21.24C105.269 21.48 105.735 21.6 106.255 21.6ZM116.021 21.8L116.101 18L121.121 13.24H124.841L120.021 18.14L118.401 19.46L116.021 21.8ZM113.441 24V9.16H116.561V24H113.441ZM121.461 24L117.821 19.48L119.781 17.06L125.241 24H121.461ZM130.515 24.16C129.368 24.16 128.348 23.92 127.455 23.44C126.575 22.96 125.875 22.3067 125.355 21.48C124.848 20.64 124.595 19.6867 124.595 18.62C124.595 17.54 124.848 16.5867 125.355 15.76C125.875 14.92 126.575 14.2667 127.455 13.8C128.348 13.32 129.368 13.08 130.515 13.08C131.648 13.08 132.661 13.32 133.555 13.8C134.448 14.2667 135.148 14.9133 135.655 15.74C136.161 16.5667 136.415 17.5267 136.415 18.62C136.415 19.6867 136.161 20.64 135.655 21.48C135.148 22.3067 134.448 22.96 133.555 23.44C132.661 23.92 131.648 24.16 130.515 24.16ZM130.515 21.6C131.035 21.6 131.501 21.48 131.915 21.24C132.328 21 132.655 20.66 132.895 20.22C133.135 19.7667 133.255 19.2333 133.255 18.62C133.255 17.9933 133.135 17.46 132.895 17.02C132.655 16.58 132.328 16.24 131.915 16C131.501 15.76 131.035 15.64 130.515 15.64C129.995 15.64 129.528 15.76 129.115 16C128.701 16.24 128.368 16.58 128.115 17.02C127.875 17.46 127.755 17.9933 127.755 18.62C127.755 19.2333 127.875 19.7667 128.115 20.22C128.368 20.66 128.701 21 129.115 21.24C129.528 21.48 129.995 21.6 130.515 21.6ZM143.04 24.16C141.813 24.16 140.733 23.92 139.8 23.44C138.88 22.96 138.167 22.3067 137.66 21.48C137.153 20.64 136.9 19.6867 136.9 18.62C136.9 17.54 137.147 16.5867 137.64 15.76C138.147 14.92 138.833 14.2667 139.7 13.8C140.567 13.32 141.547 13.08 142.64 13.08C143.693 13.08 144.64 13.3067 145.48 13.76C146.333 14.2 147.007 14.84 147.5 15.68C147.993 16.5067 148.24 17.5 148.24 18.66C148.24 18.78 148.233 18.92 148.22 19.08C148.207 19.2267 148.193 19.3667 148.18 19.5H139.44V17.68H146.54L145.34 18.22C145.34 17.66 145.227 17.1733 145 16.76C144.773 16.3467 144.46 16.0267 144.06 15.8C143.66 15.56 143.193 15.44 142.66 15.44C142.127 15.44 141.653 15.56 141.24 15.8C140.84 16.0267 140.527 16.3533 140.3 16.78C140.073 17.1933 139.96 17.6867 139.96 18.26V18.74C139.96 19.3267 140.087 19.8467 140.34 20.3C140.607 20.74 140.973 21.08 141.44 21.32C141.92 21.5467 142.48 21.66 143.12 21.66C143.693 21.66 144.193 21.5733 144.62 21.4C145.06 21.2267 145.46 20.9667 145.82 20.62L147.48 22.42C146.987 22.98 146.367 23.4133 145.62 23.72C144.873 24.0133 144.013 24.16 143.04 24.16ZM149.517 24V13.24H152.497V16.28L152.077 15.4C152.397 14.64 152.911 14.0667 153.617 13.68C154.324 13.28 155.184 13.08 156.197 13.08V15.96C156.064 15.9467 155.944 15.94 155.837 15.94C155.731 15.9267 155.617 15.92 155.497 15.92C154.644 15.92 153.951 16.1667 153.417 16.66C152.897 17.14 152.637 17.8933 152.637 18.92V24H149.517ZM160.951 24.16C160.031 24.16 159.144 24.0533 158.291 23.84C157.451 23.6133 156.784 23.3333 156.291 23L157.331 20.76C157.824 21.0667 158.404 21.32 159.071 21.52C159.751 21.7067 160.417 21.8 161.071 21.8C161.791 21.8 162.297 21.7133 162.591 21.54C162.897 21.3667 163.051 21.1267 163.051 20.82C163.051 20.5667 162.931 20.38 162.691 20.26C162.464 20.1267 162.157 20.0267 161.771 19.96C161.384 19.8933 160.957 19.8267 160.491 19.76C160.037 19.6933 159.577 19.6067 159.111 19.5C158.644 19.38 158.217 19.2067 157.831 18.98C157.444 18.7533 157.131 18.4467 156.891 18.06C156.664 17.6733 156.551 17.1733 156.551 16.56C156.551 15.88 156.744 15.28 157.131 14.76C157.531 14.24 158.104 13.8333 158.851 13.54C159.597 13.2333 160.491 13.08 161.531 13.08C162.264 13.08 163.011 13.16 163.771 13.32C164.531 13.48 165.164 13.7133 165.671 14.02L164.631 16.24C164.111 15.9333 163.584 15.7267 163.051 15.62C162.531 15.5 162.024 15.44 161.531 15.44C160.837 15.44 160.331 15.5333 160.011 15.72C159.691 15.9067 159.531 16.1467 159.531 16.44C159.531 16.7067 159.644 16.9067 159.871 17.04C160.111 17.1733 160.424 17.28 160.811 17.36C161.197 17.44 161.617 17.5133 162.071 17.58C162.537 17.6333 163.004 17.72 163.471 17.84C163.937 17.96 164.357 18.1333 164.731 18.36C165.117 18.5733 165.431 18.8733 165.671 19.26C165.911 19.6333 166.031 20.1267 166.031 20.74C166.031 21.4067 165.831 22 165.431 22.52C165.031 23.0267 164.451 23.4267 163.691 23.72C162.944 24.0133 162.031 24.16 160.951 24.16ZM172.496 24.16C171.269 24.16 170.189 23.92 169.256 23.44C168.336 22.96 167.622 22.3067 167.116 21.48C166.609 20.64 166.356 19.6867 166.356 18.62C166.356 17.54 166.602 16.5867 167.096 15.76C167.602 14.92 168.289 14.2667 169.156 13.8C170.022 13.32 171.002 13.08 172.096 13.08C173.149 13.08 174.096 13.3067 174.936 13.76C175.789 14.2 176.462 14.84 176.956 15.68C177.449 16.5067 177.696 17.5 177.696 18.66C177.696 18.78 177.689 18.92 177.676 19.08C177.662 19.2267 177.649 19.3667 177.636 19.5H168.896V17.68H175.996L174.796 18.22C174.796 17.66 174.682 17.1733 174.456 16.76C174.229 16.3467 173.916 16.0267 173.516 15.8C173.116 15.56 172.649 15.44 172.116 15.44C171.582 15.44 171.109 15.56 170.696 15.8C170.296 16.0267 169.982 16.3533 169.756 16.78C169.529 17.1933 169.416 17.6867 169.416 18.26V18.74C169.416 19.3267 169.542 19.8467 169.796 20.3C170.062 20.74 170.429 21.08 170.896 21.32C171.376 21.5467 171.936 21.66 172.576 21.66C173.149 21.66 173.649 21.5733 174.076 21.4C174.516 21.2267 174.916 20.9667 175.276 20.62L176.936 22.42C176.442 22.98 175.822 23.4133 175.076 23.72C174.329 24.0133 173.469 24.16 172.496 24.16ZM185.513 13.08C186.366 13.08 187.126 13.2533 187.793 13.6C188.473 13.9333 189.006 14.4533 189.393 15.16C189.779 15.8533 189.973 16.7467 189.973 17.84V24H186.853V18.32C186.853 17.4533 186.659 16.8133 186.273 16.4C185.899 15.9867 185.366 15.78 184.673 15.78C184.179 15.78 183.733 15.8867 183.333 16.1C182.946 16.3 182.639 16.6133 182.413 17.04C182.199 17.4667 182.093 18.0133 182.093 18.68V24H178.973V13.24H181.953V16.22L181.393 15.32C181.779 14.6 182.333 14.0467 183.053 13.66C183.773 13.2733 184.593 13.08 185.513 13.08Z" fill="#2B313B"/>
</svg>